<svg xmlns="http://www.w3.org/2000/svg" viewBox="0 0 100 100">
<rect width="100" height="100" rx="22" fill="#6B2A33"/>
<rect x="7" y="7" width="86" height="86" rx="16" fill="#F2E8D2"/>
<rect x="11.5" y="11.5" width="77" height="77" rx="13" fill="none" stroke="#6B2A33" stroke-width="1.8" opacity=".55"/>
<g transform="translate(18.5,79.0)"><path d="M56.42916666666667 -1.5305555555555557Q56.42916666666667 0.04027777777777778 55.66388888888889 0.8256944444444445Q54.898611111111116 1.6111111111111112 53.32777777777778 1.6111111111111112Q51.99861111111112 1.6111111111111112 50.89097222222223 0.90625Q49.78333333333334 0.2013888888888889 48.736111111111114 -0.7250000000000001Q47.68888888888889 -1.651388888888889 46.74236111111111 -2.35625Q45.795833333333334 -3.0611111111111113 44.90972222222223 -3.0611111111111113Q43.983333333333334 -3.0611111111111113 42.81527777777778 -2.35625Q41.647222222222226 -1.651388888888889 40.015972222222224 -0.7451388888888889Q38.38472222222222 0.16111111111111112 36.06875 0.8659722222222224Q33.75277777777778 1.5708333333333335 30.409722222222225 1.5708333333333335Q23.804166666666667 1.5708333333333335 18.608333333333334 -0.5236111111111111Q13.412500000000001 -2.618055555555556 9.787500000000001 -6.525Q6.1625000000000005 -10.431944444444445 4.269444444444445 -15.889583333333334Q2.376388888888889 -21.347222222222225 2.376388888888889 -28.15416666666667Q2.376388888888889 -34.55833333333334 4.611805555555556 -39.99583333333334Q6.847222222222222 -45.43333333333334 10.854861111111111 -49.461111111111116Q14.8625 -53.488888888888894 20.219444444444445 -55.72430555555556Q25.57638888888889 -57.959722222222226 31.859722222222224 -57.959722222222226Q35.8875 -57.959722222222226 38.38472222222222 -57.31527777777778Q40.88194444444445 -56.670833333333334 42.41250000000001 -56.00625Q43.94305555555556 -55.34166666666667 45.03055555555556 -55.34166666666667Q46.19861111111111 -55.34166666666667 46.96388888888889 -55.96597222222222Q47.72916666666667 -56.59027777777778 48.53472222222223 -57.21458333333334Q49.34027777777778 -57.838888888888896 50.548611111111114 -57.838888888888896Q51.51527777777778 -57.838888888888896 52.179861111111116 -57.19444444444445Q52.84444444444445 -56.550000000000004 53.24722222222223 -55.05972222222223L57.395833333333336 -40.64027777777778Q57.71805555555556 -39.43194444444445 57.07361111111111 -38.46527777777778Q56.42916666666667 -37.49861111111111 55.22083333333334 -37.176388888888894Q53.89166666666667 -36.85416666666667 52.78402777777778 -37.35763888888889Q51.676388888888894 -37.861111111111114 51.07222222222222 -39.23055555555556Q48.97777777777778 -44.18472222222223 46.33958333333334 -46.90347222222223Q43.70138888888889 -49.62222222222223 40.740972222222226 -50.68958333333334Q37.78055555555556 -51.75694444444445 34.800000000000004 -51.75694444444445Q30.49027777777778 -51.75694444444445 27.429166666666667 -49.25972222222222Q24.368055555555557 -46.7625 22.736805555555556 -42.15069444444445Q21.105555555555558 -37.53888888888889 21.105555555555558 -31.175Q21.105555555555558 -23.07916666666667 23.03888888888889 -17.64166666666667Q24.972222222222225 -12.204166666666667 28.355555555555558 -9.485416666666667Q31.73888888888889 -6.7666666666666675 36.08888888888889 -6.7666666666666675Q37.09583333333334 -6.7666666666666675 37.82083333333334 -7.0888888888888895Q38.545833333333334 -7.411111111111111 39.02916666666667 -7.934722222222223Q39.5125 -8.458333333333334 39.73402777777778 -9.203472222222222Q39.955555555555556 -9.948611111111111 39.955555555555556 -10.834722222222222V-20.018055555555556Q39.955555555555556 -20.86388888888889 39.55277777777778 -21.306944444444447Q39.150000000000006 -21.75 37.90138888888889 -22.1125L36.08888888888889 -22.636111111111113Q34.88055555555556 -22.998611111111114 34.175694444444446 -23.663194444444446Q33.47083333333334 -24.32777777777778 33.47083333333334 -25.334722222222222Q33.47083333333334 -26.543055555555558 34.29652777777778 -27.22777777777778Q35.12222222222223 -27.9125 36.85416666666667 -27.9125H57.75833333333334Q59.53055555555556 -27.9125 60.35625 -27.22777777777778Q61.18194444444445 -26.543055555555558 61.18194444444445 -25.375Q61.18194444444445 -24.408333333333335 60.678472222222226 -23.804166666666667Q60.175000000000004 -23.200000000000003 59.12777777777778 -22.756944444444446L58.20138888888889 -22.394444444444446Q57.395833333333336 -22.072222222222223 56.9125 -21.548611111111114Q56.42916666666667 -21.025000000000002 56.42916666666667 -20.018055555555556Z" fill="#2F2723"/></g>
</svg>